<svg width="161" height="26" viewBox="0 0 161 26" fill="none" xmlns="http://www.w3.org/2000/svg">
<path fill-rule="evenodd" clip-rule="evenodd" d="M13.178 0.791992C16.714 0.791992 19.706 2.01598 22.154 4.46399L19.434 7.11599C17.7793 5.39332 15.694 4.53199 13.178 4.53199C10.7753 4.53199 8.74103 5.34798 7.07502 6.97999C5.40901 8.612 4.57602 10.652 4.57602 13.1C4.57602 15.548 5.40901 17.588 7.07502 19.22C8.74103 20.852 10.7753 21.668 13.178 21.668C15.694 21.668 17.7793 20.8067 19.434 19.084L22.154 21.736C19.706 24.184 16.714 25.408 13.178 25.408C9.73267 25.408 6.78036 24.2237 4.32102 21.855C1.86167 19.4863 0.632019 16.568 0.632019 13.1C0.632019 9.63197 1.86167 6.71367 4.32102 4.34499C6.78036 1.97631 9.73267 0.791992 13.178 0.791992ZM30.042 4.80399V25H26.098V1.19999H32.014C34.4167 1.19999 36.3717 1.86865 37.879 3.20599C39.3864 4.54333 40.14 6.24332 40.14 8.30599C40.14 9.666 39.7604 10.9297 39.001 12.097C38.2417 13.2643 37.1254 14.1087 35.652 14.63L42.316 23.64L39.154 25.408L30.824 13.134L31.13 11.842H31.436C32.932 11.842 34.0993 11.519 34.938 10.873C35.7767 10.227 36.196 9.36 36.196 8.27199C36.196 7.16132 35.7937 6.30566 34.989 5.70499C34.1843 5.10432 33.1134 4.80399 31.776 4.80399H30.042ZM57.48 21.26V25H45.07V1.19999H57.174V4.93999H49.014V10.04H56.324V13.644H49.014V21.26H57.48ZM68.496 25H61.832V1.19999H68.496C72.0094 1.19999 74.9503 2.29931 77.319 4.49799C79.6877 6.69667 80.872 9.56397 80.872 13.1C80.872 16.636 79.6877 19.5033 77.319 21.702C74.9503 23.9007 72.0094 25 68.496 25ZM65.776 4.93999V21.26H68.53C71.0007 21.26 73.018 20.5233 74.582 19.05C76.146 17.5767 76.928 15.5933 76.928 13.1C76.928 10.6066 76.146 8.62333 74.582 7.14999C73.018 5.67665 71.0007 4.93999 68.53 4.93999H65.776ZM85.496 1.19999H89.44V25H85.496V1.19999ZM93.18 4.93999V1.19999H108.344V4.93999H102.734V25H98.79V4.93999H93.18ZM132.144 21.872C129.673 24.2293 126.704 25.408 123.236 25.408C119.768 25.408 116.793 24.2293 114.311 21.872C111.829 19.5146 110.588 16.5907 110.588 13.1C110.588 9.60931 111.829 6.68534 114.311 4.32799C116.793 1.97065 119.768 0.791992 123.236 0.791992C126.704 0.791992 129.679 1.97065 132.161 4.32799C134.643 6.68534 135.884 9.60931 135.884 13.1C135.884 16.5907 134.637 19.5146 132.144 21.872ZM117.762 18.642C119.258 20.1153 121.083 20.852 123.236 20.852C125.389 20.852 127.208 20.1097 128.693 18.625C130.178 17.1403 130.92 15.2987 130.92 13.1C130.92 10.9013 130.178 9.05967 128.693 7.57499C127.208 6.09032 125.389 5.34799 123.236 5.34799C121.083 5.34799 119.264 6.09032 117.779 7.57499C116.294 9.05967 115.552 10.9013 115.552 13.1C115.552 15.2987 116.289 17.146 117.762 18.642ZM155.06 15.616V1.19999H160.024V24.966L157.814 25.408L144.792 10.618V25H139.828V1.26799L142.038 0.791992L155.06 15.616Z" fill="#CFE0F4"/>
</svg>
